<?xml version="1.0" encoding="UTF-8"?>
<svg width="128" height="128" viewBox="0 0 128 128" xmlns="http://www.w3.org/2000/svg">
  <defs>
    <!-- 渐变背景定义 -->
    <linearGradient id="backgroundGradient" x1="0%" y1="0%" x2="100%" y2="100%">
      <stop offset="0%" style="stop-color:#4F46E5;stop-opacity:1" />
      <stop offset="100%" style="stop-color:#06B6D4;stop-opacity:1" />
    </linearGradient>
  </defs>
  
  <!-- 背景圆形 -->
  <circle cx="64" cy="64" r="60" fill="url(#backgroundGradient)" />
  
  <!-- 咖啡杯主体 -->
  <g stroke="#FFFFFF" stroke-width="4" fill="none" stroke-linecap="round" stroke-linejoin="round">
    <!-- 杯子轮廓 -->
    <path d="M 41.5 44 L 41.5 84 Q 41.5 92 49.5 92 L 73.5 92 Q 81.5 92 81.5 84 L 81.5 44" />
    
    <!-- 杯子手柄 -->
    <path d="M 81.5 58 Q 93.5 58 93.5 70 Q 93.5 82 81.5 82" />
  </g>
  
  <!-- 杯子内部文档图标 -->
  <g fill="#E0F2FE">
    <!-- 文档主体 -->
    <rect x="46" y="52" width="10" height="12" />
    <!-- 文档折角 -->
    <polygon points="53,52 56,52 56,55" fill="#FFFFFF" />
  </g>
  
  <!-- 导航箭头 -->
  <g fill="#FFFFFF">
    <polygon points="67,58 76,61 73,61 73,63 76,63 67,66 67,64 70,62 67,60" />
  </g>
  
  <!-- 咖啡蒸汽 -->
  <g stroke="#FFFFFF" stroke-width="2" fill="none" opacity="0.6" stroke-linecap="round">
    <!-- 第一条蒸汽线 -->
    <path d="M 55 36 Q 52 32 55 28 Q 58 24 55 20" />
    <!-- 第二条蒸汽线 -->
    <path d="M 61 38 Q 58 34 61 30 Q 64 26 61 22" />
    <!-- 第三条蒸汽线 -->
    <path d="M 67 40 Q 64 36 67 32 Q 70 28 67 24" />
  </g>
</svg> 